<svg width="141" height="50" viewBox="0 0 141 50" fill="none" xmlns="http://www.w3.org/2000/svg">
<path d="M4.35517 24.6853L24.6845 45.0155L45.0129 24.6853L24.6845 4.35604L4.35517 24.6853ZM10.3086 33.55L8.25518 31.4966L1.45173 24.6897L8.25518 17.8836L10.3086 15.8302V10.3129H15.8233L24.6802 1.45172L31.4828 8.25862L33.5362 10.3121H39.0517V15.8293L41.1043 17.8836L47.9078 24.6897L41.1043 31.4957L39.0517 33.55V39.0681H33.5362L31.4828 41.1224L24.6802 47.9285L17.8767 41.1224L15.8233 39.0681H10.3086V33.55ZM24.6793 0L16.425 8.2569H8.25518V16.4293L0 24.6845L8.25518 32.9422V41.1138H16.425L24.6802 49.3707L32.9345 41.1138H41.1043V32.9414L49.3595 24.6845L41.1043 16.4276V8.25604H32.9345L24.6793 0Z" fill="#00805F"/>
<path d="M1.44827 24.6819L10.3043 15.8232V10.3069H15.8198L24.6759 1.44824L33.5319 10.3069H39.0474V15.8241L47.9052 24.681L39.0483 33.5396V39.0569H33.5328L24.6767 47.9155L15.8207 39.0569H10.3052V33.5396L1.44827 24.6819ZM10.3017 30.6327C13.731 26.4974 18.9009 23.8586 24.6698 23.8577C29.1224 23.8577 32.7535 20.2258 32.7535 15.7715C32.7535 13.6681 31.944 11.7474 30.6207 10.306L24.6698 4.35256L18.7181 10.3069L10.3026 18.7258L4.35173 24.6801L10.3026 30.6336L10.3017 30.6327ZM39.0474 18.731C35.6181 22.8663 30.4465 25.5051 24.6759 25.5051C20.2215 25.506 16.5897 29.1388 16.5897 33.5931C16.5897 35.6965 17.4 37.6163 18.7241 39.0577H18.7224L24.6759 45.0112L30.6293 39.0577L39.0474 30.6379L45.0009 24.6844L39.0474 18.731Z" fill="#FAAE17"/>
<path d="M75.5966 41.1163H71.4905L79.2923 25.5085H83.3983L91.2 41.1163H87.0931L85.8621 38.6508H76.8276L75.5966 41.1163ZM50.1379 25.5085H65.9466C66.9803 25.5117 67.9708 25.9239 68.7017 26.6549C69.4326 27.386 69.8445 28.3765 69.8474 29.4103C69.8447 30.4441 69.4329 31.4348 68.7019 32.1659C67.971 32.897 66.9804 33.309 65.9466 33.312C66.9803 33.3152 67.9708 33.7273 68.7017 34.4584C69.4326 35.1894 69.8445 36.18 69.8474 37.2137C69.8447 38.2476 69.4329 39.2384 68.702 39.9696C67.9711 40.7009 66.9804 41.1131 65.9466 41.1163H50.1379V25.5085ZM50.1379 8.25854H54.2448V14.8301H65.7414V8.25854H69.8474V23.8654H65.7414V17.2947H54.2448V23.8654H50.1379V8.25854ZM85.8621 21.4016H76.8276L75.5966 23.8654H71.4905L79.2923 8.25854H83.3983L91.2 23.8654H87.0931L85.8621 21.4016ZM78.0604 18.9456H84.6293L81.3448 12.3654L78.0604 18.9456ZM92.8422 8.25854H96.9483V21.4016H108.446V23.8654H92.8422V8.25854ZM114.2 23.8654H110.091V17.2947L102.287 8.25854H106.395L112.146 14.8301L117.897 8.25854H122.004L114.2 17.2947V23.8654ZM123.228 8.25854H127.336V14.8301L136.375 8.25854H140.893L130.294 16.062L140.893 23.8654H136.375L127.336 17.2947V23.8654H123.228V8.25854ZM131.851 41.1163H127.335L118.301 34.5448V41.1163H114.194V25.5085H118.301V32.0801L127.335 25.5085H131.851L121.257 33.312L131.851 41.1163ZM92.8422 25.5085H96.9483L108.446 37.0085V25.5085H112.552V41.1163H108.446L96.9483 29.6163V41.1163H92.8422V25.5085ZM54.2448 27.9732V32.0801H63.6888C64.2328 32.0783 64.7539 31.8613 65.1385 31.4766C65.5231 31.0919 65.7398 30.5706 65.7414 30.0266C65.7398 29.4827 65.5231 28.9614 65.1385 28.5767C64.7539 28.192 64.2328 27.975 63.6888 27.9732H54.2448ZM54.2448 34.5448V38.6603H63.6888C64.2334 38.658 64.7549 38.4403 65.1395 38.0547C65.5241 37.6692 65.7405 37.1471 65.7414 36.6025C65.7402 36.058 65.5238 35.536 65.1393 35.1505C64.7547 34.765 64.2333 34.5473 63.6888 34.5448H54.2448ZM84.6302 36.1956L81.3457 29.6154L78.0604 36.1956H84.6302Z" fill="#008060"/>
</svg>
