<svg width="125" height="40" viewBox="0 0 125 40" fill="none" xmlns="http://www.w3.org/2000/svg">
<path d="M108.356 6.66675C107.289 6.66675 106.4 7.55564 106.4 8.6223V33.4223H108.356C109.422 33.4223 110.311 32.5334 110.311 31.4667V6.66675H108.356Z" fill="#831DBF"/>
<path d="M116.711 6.66675C115.644 6.66675 114.756 7.55564 114.756 8.6223V33.4223H116.711C117.778 33.4223 118.667 32.5334 118.667 31.4667V6.66675H116.711Z" fill="#831DBF"/>
<path d="M72.8 18.1335H80.4444C81.5111 18.1335 82.4 17.2446 82.4 16.178V14.2224H72.8C69.6889 14.2224 66.9333 15.7335 65.1556 18.0446C63.9111 19.6446 63.2 21.6002 63.2 23.8224C63.2 25.9557 63.9111 28.0002 65.1556 29.6002C66.9333 31.9113 69.6889 33.4224 72.8 33.4224H82.4V31.4669C82.4 30.4002 81.5111 29.5113 80.4444 29.5113H72.8C69.6 29.5113 67.0222 26.9335 67.0222 23.7335C67.0222 20.7113 69.6 18.1335 72.8 18.1335Z" fill="#831DBF"/>
<path d="M47.1111 6.66675C46.0444 6.66675 45.1555 7.55564 45.1555 8.6223V10.5779H54.7556V33.5112H56.7111C57.7778 33.5112 58.6667 32.6223 58.6667 31.5556V10.489H66.3111C67.3778 10.489 68.2667 9.60008 68.2667 8.53341V6.66675H47.1111Z" fill="#831DBF"/>
<path d="M93.1555 18.1335H100.8C101.867 18.1335 102.756 17.2446 102.756 16.178V14.2224H93.1555C90.0444 14.2224 87.2889 15.7335 85.5111 18.0446C84.2667 19.6446 83.5555 21.6002 83.5555 23.8224C83.5555 26.0446 84.2667 28.0002 85.5111 29.6002C87.2889 31.9113 90.0444 33.4224 93.1555 33.4224H102.756V31.4669C102.756 30.4002 101.867 29.5113 100.8 29.5113H93.1555C90.6667 29.5113 88.4444 27.9113 87.7333 25.6002H99.2889V23.7335C99.2889 22.7557 98.4889 21.8669 97.4222 21.8669H87.6444C88.4444 19.7335 90.5778 18.1335 93.1555 18.1335Z" fill="#831DBF"/>
<path d="M20.4445 39.7332C31.2938 39.7332 40.0889 30.9381 40.0889 20.0888C40.0889 9.23945 31.2938 0.444336 20.4445 0.444336C9.59512 0.444336 0.800003 9.23945 0.800003 20.0888C0.800003 30.9381 9.59512 39.7332 20.4445 39.7332Z" fill="url(#paint0_radial_33_105)"/>
<path d="M23.8222 2.5777C23.8222 2.5777 23.5556 2.48881 23.2 2.48881H22.9333C22.3111 2.39992 21.4222 2.31104 20.5333 2.31104C19.7333 2.31104 18.7556 2.39992 18.1333 2.48881H17.8667C17.5111 2.5777 17.2444 2.5777 17.2444 2.5777C16.8 2.66659 16.9778 2.75548 16.9778 2.75548C17.1556 2.84437 17.4222 2.66659 17.6889 2.66659C17.9556 2.5777 18.1333 2.5777 18.4 2.48881C18.6667 2.48881 18.6667 2.48881 18.6667 2.48881C18.2222 2.5777 17.7778 2.66659 17.8667 2.75548C17.8667 2.84437 18.2222 2.75548 18.5778 2.5777C19.6444 2.31104 19.2889 2.48881 19.2889 2.48881C19.1111 2.5777 19.0222 2.66659 19.0222 2.66659C19.0222 2.84437 19.2889 2.75548 19.9111 2.39992C20.2667 2.22215 20.2667 2.48881 20.2667 2.48881C20.2667 2.5777 20.2667 2.66659 20.4444 2.75548H20.5333H20.6222C20.8 2.75548 20.8 2.5777 20.8 2.48881C20.8 2.48881 20.7111 2.31104 21.1556 2.39992C21.7778 2.66659 22.0444 2.75548 22.0444 2.66659C22.0444 2.5777 21.9556 2.5777 21.7778 2.48881C21.7778 2.48881 21.4222 2.31104 22.4889 2.5777C22.8444 2.66659 23.2 2.75548 23.2 2.75548C23.2 2.66659 22.8444 2.5777 22.4 2.48881C22.4 2.48881 22.4 2.48881 22.6667 2.48881C22.9333 2.5777 23.1111 2.5777 23.3778 2.66659C23.6444 2.75548 23.9111 2.84437 24.0889 2.75548C24.0889 2.75548 24.2667 2.66659 23.8222 2.5777Z" fill="#8F34C5"/>
<path d="M12.7111 6.84424C11.2 6.93313 9.33333 9.33313 10.3111 10.1331C11.2889 10.8442 13.5111 8.88868 13.3333 7.46646C13.3333 7.02202 13.0667 6.84424 12.7111 6.84424Z" fill="#C799E2"/>
<path d="M16.3555 6.84424C14.7555 6.93313 13.5111 8.97757 14.4889 9.95535C15.4667 10.8442 17.6 9.68868 17.5111 7.99979C17.4222 7.37757 17.0667 6.84424 16.3555 6.84424Z" fill="#C799E2"/>
<path d="M20.4444 6.84424C18.7555 6.93313 18.2222 8.88868 19.2889 9.86646C20.3555 10.7554 22.3111 10.1331 22.1333 8.53313C22.1333 7.55535 21.3333 6.84424 20.4444 6.84424Z" fill="#C799E2"/>
<path d="M24.6222 6.84424C23.2 6.93313 23.1111 8.79979 24.2667 9.68868C25.4222 10.6665 27.0222 10.222 26.9333 8.97757C26.8444 7.91091 25.6889 6.84424 24.6222 6.84424Z" fill="#C799E2"/>
<path d="M28.3556 6.84424C27.2889 6.93313 27.7333 8.62202 28.8889 9.5998C29.9556 10.5776 31.1111 10.4887 31.0222 9.42202C30.9333 8.26646 29.3333 6.84424 28.3556 6.84424Z" fill="#C799E2"/>
<path d="M10.2222 11.7332C8.35555 11.822 7.28889 14.7554 8.44444 15.7332C9.6 16.7109 11.6444 14.9332 11.3778 12.9776C11.2889 12.2665 10.8444 11.7332 10.2222 11.7332Z" fill="#C799E2"/>
<path d="M31.0222 11.7332C29.4222 11.822 29.5111 14.3109 30.9333 15.5554C32.0889 16.5332 33.3333 15.9998 33.3333 14.4887C33.2444 13.1554 32.0889 11.7332 31.0222 11.7332Z" fill="#C799E2"/>
<path d="M8.88889 17.8667C7.02222 17.9556 6.66666 21.0667 8 22.2223C9.24444 23.3778 10.8444 21.9556 10.6667 20C10.5778 18.7556 9.86666 17.8667 8.88889 17.8667Z" fill="#C799E2"/>
<path d="M14.3111 17.8667C12.0889 17.9556 11.5555 20.8 12.9778 22.1334C14.4 23.3778 16.4444 22.3111 16.4444 20.2667C16.4444 18.9334 15.5556 17.8667 14.3111 17.8667Z" fill="#C799E2"/>
<path d="M26.7556 17.8667C24.5333 17.9556 23.9111 20.8 25.3333 22.1334C26.8444 23.4667 29.1556 22.1334 28.8889 20C28.8 18.8445 27.8222 17.8667 26.7556 17.8667Z" fill="#C799E2"/>
<path d="M32.3556 17.8667C30.4889 17.9556 30.0444 21.0667 31.3778 22.2223C32.6222 23.3778 34.2222 22.0445 34.0444 20C33.9555 18.7556 33.2444 17.8667 32.3556 17.8667Z" fill="#C799E2"/>
<path d="M14.4889 24.4443C12.5333 24.5332 12.2667 26.8443 13.6 28.0888C15.0222 29.3332 16.8889 28.4443 16.7111 26.5777C16.6222 25.4221 15.6444 24.4443 14.4889 24.4443Z" fill="#C799E2"/>
<path d="M26.5778 24.4443C24.4444 24.5332 23.5556 27.111 24.8 28.2666C26.0444 29.511 28.4444 28.1777 28.3556 26.2221C28.3556 25.2443 27.5556 24.4443 26.5778 24.4443Z" fill="#C799E2"/>
<path d="M15.3778 30.2222C13.8667 30.3111 13.8667 31.8222 14.9333 32.8888C16.0889 33.9555 17.5111 33.6888 17.5111 32.3555C17.5111 31.2888 16.4444 30.2222 15.3778 30.2222Z" fill="#C799E2"/>
<path d="M20.4444 30.2222C18.6667 30.3111 18.2222 32.0888 19.2889 33.1555C20.4444 34.2222 22.1333 33.2444 22.1333 31.8222C22.1333 30.9333 21.4222 30.2222 20.4444 30.2222Z" fill="#C799E2"/>
<path d="M25.6 30.2222C23.6444 30.3111 22.8444 32.5333 23.8222 33.3333C24.8 34.1333 26.9333 32.7999 26.8444 31.3777C26.8444 30.6666 26.4 30.2222 25.6 30.2222Z" fill="#C799E2"/>
<path d="M15.0222 11.7332C12.8889 11.822 12.0889 14.5776 13.3333 15.6443C14.7555 16.7998 16.8889 15.2887 16.7111 13.422C16.6222 12.4443 15.9111 11.7332 15.0222 11.7332Z" fill="white"/>
<path d="M20.4444 11.7332C18.3111 11.822 17.6889 14.3109 19.0222 15.5554C20.4444 16.7109 22.5778 15.7332 22.5778 13.8665C22.5778 12.7109 21.6 11.7332 20.4444 11.7332Z" fill="white"/>
<path d="M26.0444 11.7332C24.0889 11.822 23.7333 14.1332 25.0667 15.3776C26.4 16.622 28.4444 15.9998 28.4444 14.222C28.4444 12.9776 27.2889 11.7332 26.0444 11.7332Z" fill="white"/>
<path d="M20.4444 17.8667C18.1333 17.9556 17.5111 20.8 19.0222 22.1334C20.5333 23.4667 22.9333 22.1334 22.7556 20C22.6667 18.8445 21.6 17.8667 20.4444 17.8667Z" fill="white"/>
<path d="M20.4444 24.4443C18.3111 24.5332 17.6889 26.8443 19.0222 28.0888C20.3556 29.4221 22.6667 28.3554 22.5778 26.3999C22.4889 25.3332 21.6 24.4443 20.4444 24.4443Z" fill="white"/>
<path d="M13.9556 3.55542C13.3333 3.64431 10.3111 5.3332 9.95555 5.68875C9.95555 5.68875 10.0444 5.68875 10.2222 5.59986C10.9333 5.24431 11.6444 4.79986 12.2667 4.35542C12.8889 4.08875 13.4222 3.82209 13.9556 3.55542Z" fill="#A255CF"/>
<path d="M14.6667 3.55542C13.6889 3.64431 10.7556 5.42209 11.0222 5.68875C11.1111 5.77764 11.5556 5.68875 12.4444 5.15542C13.0667 4.79986 14.7556 3.7332 14.6667 3.55542C14.7556 3.55542 14.7556 3.55542 14.6667 3.55542Z" fill="#A255CF"/>
<path d="M16.1778 3.55542C14.9333 3.64431 12.8 5.24431 13.3333 5.68875C13.9555 6.1332 16.3555 4.26653 16.3555 3.64431C16.3555 3.55542 16.3555 3.55542 16.1778 3.55542Z" fill="#A255CF"/>
<path d="M18.2222 3.55542C17.1556 3.64431 15.7333 4.97764 16.3556 5.59986C17.0667 6.22209 18.7556 4.97764 18.6667 3.91098C18.6667 3.7332 18.5778 3.55542 18.2222 3.55542Z" fill="#A255CF"/>
<path d="M20.4444 3.55542C19.4667 3.64431 19.0222 4.79986 19.6444 5.42209C20.3556 6.04431 21.6889 5.59986 21.5111 4.62209C21.5111 4.08875 20.9778 3.55542 20.4444 3.55542Z" fill="#A255CF"/>
<path d="M22.7556 3.55542C21.9555 3.55542 22.3111 4.62209 22.9333 5.15542C23.8222 5.95542 24.8889 5.86653 24.8889 5.15542C24.7111 4.44431 23.3778 3.55542 22.7556 3.55542Z" fill="#A255CF"/>
<path d="M24.8 3.55542C24.1778 3.64431 25.5111 4.71098 25.5111 4.79986C26.5778 5.77764 27.7333 6.04431 27.7333 5.51097C27.7333 4.79986 25.5111 3.55542 24.8 3.55542Z" fill="#A255CF"/>
<path d="M26.2222 3.55538C26.2222 3.55538 26.1333 3.55538 26.2222 3.55538C26.1333 3.55538 26.1333 3.55538 26.2222 3.55538C26.3111 3.82205 28.0889 4.97761 28.7111 5.24427C29.7778 5.86649 29.8667 5.68872 29.8667 5.68872C29.8667 5.15538 26.8444 3.46649 26.2222 3.55538Z" fill="#A255CF"/>
<path d="M26.8444 3.55542C26.8444 3.55542 26.8444 3.55542 27.1111 3.7332C27.3778 3.91098 27.8222 4.08875 28.4444 4.44431C29.1555 4.79986 29.8667 5.24431 30.4889 5.68875C30.6667 5.77764 30.6667 5.77764 30.6667 5.77764C30.7555 5.42209 27.5555 3.64431 26.8444 3.55542Z" fill="#A255CF"/>
<path d="M8.62222 6.84424C8.17778 6.93313 5.68889 9.77757 5.68889 10.222C6.04444 10.1331 8.62222 7.02202 8.62222 6.84424Z" fill="#A255CF"/>
<path d="M9.95555 6.84424C8.88889 6.93313 6.66666 9.51091 7.11111 10.1331C7.28889 10.3109 7.82222 10.3109 8.8 9.24424C9.42222 8.62202 10.1333 7.55535 10.1333 7.02202C10.2222 6.93313 10.1333 6.84424 9.95555 6.84424Z" fill="#A255CF"/>
<path d="M30.9333 6.84424C30.2222 6.93313 31.7333 8.97757 32.7111 9.86646C33.3333 10.3998 33.7778 10.3998 33.7778 9.95535C33.7778 8.88868 31.7333 6.84424 30.9333 6.84424Z" fill="#A255CF"/>
<path d="M32.1778 6.84424C32.1778 7.02202 34.8444 10.1331 35.1111 10.222C35.1111 9.77757 32.6222 6.93313 32.1778 6.84424Z" fill="#A255CF"/>
<path d="M4.8 11.7332C4.26666 11.9109 3.02222 15.822 3.2 15.9998C3.46666 15.9109 4 14.5776 4.17778 14.0443C4.71111 12.7109 4.97778 11.7332 4.8 11.7332Z" fill="#A255CF"/>
<path d="M6.57778 11.7332C5.15555 11.9109 4.08889 15.2887 4.88889 15.9109C5.68889 16.5332 7.28889 14.1332 7.2 12.4443C7.02222 11.9998 6.84444 11.7332 6.57778 11.7332Z" fill="#A255CF"/>
<path d="M34.4 11.7332C33.3333 11.822 34.3111 15.022 35.3778 15.822C36 16.2665 36.4444 15.7332 36.2667 14.6665C36.0889 13.3332 35.1111 11.7332 34.4 11.7332Z" fill="#A255CF"/>
<path d="M36 11.7332C35.7333 11.9109 37.2444 15.9109 37.6 15.9998C37.9555 15.9109 36.4444 11.9109 36 11.7332Z" fill="#A255CF"/>
<path d="M2.84444 17.8667C2.48889 18.0445 2.48889 22.4889 2.84444 22.6667C3.28889 22.4889 3.28889 18.0445 2.84444 17.8667Z" fill="#A255CF"/>
<path d="M4.8 17.8667C3.46667 18.0445 3.37778 21.6 4.35556 22.4889C5.15556 23.2 6.04444 21.8667 5.95556 20C5.95556 18.7556 5.42222 17.8667 4.8 17.8667Z" fill="#A255CF"/>
<path d="M36.1778 17.8667C34.8444 18.0445 34.9333 21.8667 35.8222 22.5778C36.6222 23.2 37.4222 21.2445 37.0667 19.3778C36.9778 18.4 36.6222 17.8667 36.1778 17.8667Z" fill="#A255CF"/>
<path d="M37.9556 17.8667C37.6 18.0445 37.6 22.4889 37.9556 22.6667C38.3111 22.4889 38.3111 18.0445 37.9556 17.8667Z" fill="#A255CF"/>
<path d="M3.28888 24.4443C2.93333 24.6221 4.62222 28.5332 4.88888 28.711C5.06666 28.7999 4.88888 28.3554 4.79999 27.9999C4.44444 26.7554 3.55555 24.6221 3.28888 24.4443Z" fill="#A255CF"/>
<path d="M5.15555 24.4443C3.99999 24.5332 4.79999 27.5554 6.04443 28.4443C6.75555 28.9777 7.28888 28.5332 7.1111 27.4666C7.02221 26.0443 5.95555 24.4443 5.15555 24.4443Z" fill="#A255CF"/>
<path d="M9.15556 24.4443C7.55556 24.5332 7.64445 26.8443 8.97778 28.0888C10.2222 29.2443 11.4667 28.6221 11.3778 27.0221C11.2889 25.7777 10.2222 24.4443 9.15556 24.4443Z" fill="#A255CF"/>
<path d="M32.0889 24.4443C30.2222 24.5332 29.1556 27.5554 30.3111 28.4443C31.4667 29.4221 33.5111 27.4666 33.2444 25.5999C33.0667 24.8888 32.7111 24.4443 32.0889 24.4443Z" fill="#A255CF"/>
<path d="M35.8222 24.4443C34.4889 24.6221 33.4222 27.9999 34.0444 28.6221C34.6667 29.2443 36.2667 26.8443 36.2667 25.2443C36.2667 24.7999 36.0889 24.4443 35.8222 24.4443Z" fill="#A255CF"/>
<path d="M37.6 24.4443C37.2444 24.6221 35.6444 28.5332 35.9111 28.711C36.3556 28.6221 37.8667 24.6221 37.6 24.4443Z" fill="#A255CF"/>
<path d="M5.86667 30.2222C5.86667 30.6666 8.35556 33.4222 8.88889 33.5999C8.88889 33.4222 6.13334 30.3111 5.86667 30.2222Z" fill="#A255CF"/>
<path d="M7.46667 30.2222C6.66667 30.3111 7.64445 31.9111 8.88889 32.8888C9.6 33.5111 10.4 33.8666 10.3111 33.3333C10.3111 32.4444 8.35556 30.2222 7.46667 30.2222Z" fill="#A255CF"/>
<path d="M10.9333 30.2222C9.77778 30.3111 10.1333 31.7333 11.2889 32.7999C12.2667 33.6888 13.5111 33.9555 13.5111 32.8888C13.4222 31.7333 12 30.2222 10.9333 30.2222Z" fill="#A255CF"/>
<path d="M30.3111 30.2222C28.5333 30.3111 27.2 32.8888 27.9111 33.4222C28.7111 34.1333 31.2 31.9111 31.0222 30.7555C30.8444 30.3111 30.4889 30.2222 30.3111 30.2222Z" fill="#A255CF"/>
<path d="M33.5111 30.2222C32.3556 30.3111 30.3111 33.2444 30.7556 33.5111C31.2 33.8666 33.8667 31.4666 33.7778 30.3999C33.6889 30.3111 33.5111 30.2222 33.5111 30.2222Z" fill="#A255CF"/>
<path d="M35.0222 30.2222C34.6667 30.3111 32 33.4222 32 33.5999C32.3556 33.5999 34.9333 30.6666 35.0222 30.2222Z" fill="#A255CF"/>
<path d="M10.2222 34.6665C10.3111 34.9332 13.5111 36.6221 14.2222 36.7998C14.2222 36.7998 14.2222 36.7998 13.9555 36.6221C13.6889 36.4443 13.2444 36.2665 12.5333 35.9109C11.8222 35.5554 11.1111 35.1109 10.4 34.7554C10.3111 34.7554 10.3111 34.6665 10.2222 34.6665Z" fill="#A255CF"/>
<path d="M11.3778 34.6665C11.1111 34.6665 11.4667 35.0221 11.6444 35.1998C12.7111 35.9998 14.7556 36.8887 14.9333 36.7998C14.9333 36.5332 11.9111 34.6665 11.3778 34.6665Z" fill="#A255CF"/>
<path d="M13.7778 34.6665C13.1556 34.6665 13.6 35.2887 13.9556 35.6443C14.7556 36.3554 16.5333 37.0665 16.5333 36.7109C16.5333 36.2665 14.7556 34.6665 13.7778 34.6665Z" fill="#A255CF"/>
<path d="M16.8889 34.6665C16 34.7554 16.0889 35.4665 16.8 36.0887C17.4222 36.711 18.7556 37.2443 18.6667 36.3554C18.6667 35.5554 17.7778 34.6665 16.8889 34.6665Z" fill="#A255CF"/>
<path d="M20.4445 34.6665C19.2 34.7554 19.1111 35.9109 19.8222 36.5332C20.6222 37.2443 21.6 36.3554 21.5111 35.4665C21.5111 35.0221 20.9778 34.6665 20.4445 34.6665Z" fill="#A255CF"/>
<path d="M24.0889 34.6665C22.6667 34.7554 21.9556 36.2665 22.3111 36.7109C22.8444 37.1554 24.7111 35.9109 24.7111 35.1109C24.7111 34.8443 24.4444 34.6665 24.0889 34.6665Z" fill="#A255CF"/>
<path d="M27.2889 34.6665C26.1333 34.7554 24.1778 36.5332 24.4444 36.7109C24.7111 36.9776 27.5555 35.6443 27.5555 34.8443C27.6444 34.7554 27.4667 34.6665 27.2889 34.6665Z" fill="#A255CF"/>
<path d="M29.5111 34.6665C28.8 34.7554 25.9556 36.6221 25.8667 36.7998C26.0444 36.8887 27.2 36.4443 28.1778 35.8221C29.1556 35.3776 29.6889 34.8443 29.5111 34.6665C29.6 34.6665 29.6 34.6665 29.5111 34.6665Z" fill="#A255CF"/>
<path d="M30.5778 34.6665C30.5778 34.6665 30.4889 34.6665 30.4 34.7554C29.6 35.1998 28.8889 35.6443 28.0889 35.9998C27.5556 36.2665 27.1111 36.4443 26.5778 36.711C27.0222 36.7998 30.2222 35.1109 30.5778 34.6665Z" fill="#A255CF"/>
<path d="M17.2444 37.511C17.2444 37.511 17.5111 37.5999 17.8667 37.5999H18.1333C18.7556 37.6888 19.6444 37.7776 20.5333 37.7776C21.3333 37.7776 22.3111 37.6888 22.9333 37.5999H23.2C23.5556 37.511 23.8222 37.511 23.8222 37.511C24.2667 37.4221 24.0889 37.3332 24.0889 37.3332C23.9111 37.2443 23.6444 37.4221 23.3778 37.4221C23.1111 37.511 22.9333 37.511 22.6667 37.5999C22.4 37.5999 22.4 37.5999 22.4 37.5999C22.8444 37.511 23.2 37.4221 23.2 37.3332C23.2 37.2443 22.8444 37.3332 22.4889 37.511C21.4222 37.7776 21.7778 37.5999 21.7778 37.5999C21.9556 37.511 22.0444 37.511 22.0444 37.4221C22.0444 37.2443 21.7778 37.3332 21.1556 37.6888C20.8 37.8665 20.8 37.5999 20.8 37.5999C20.8 37.511 20.8 37.4221 20.6222 37.3332H20.5333H20.4444C20.2667 37.3332 20.2667 37.511 20.2667 37.5999C20.2667 37.5999 20.3556 37.7777 19.9111 37.6888C19.2889 37.4221 19.0222 37.3332 19.0222 37.4221C19.0222 37.511 19.1111 37.511 19.2889 37.5999C19.2889 37.5999 19.6444 37.7776 18.5778 37.511C18.2222 37.4221 17.8667 37.3332 17.8667 37.3332C17.8667 37.4221 18.2222 37.511 18.6667 37.5999C18.6667 37.5999 18.6667 37.5999 18.4 37.5999C18.1333 37.511 17.9556 37.511 17.6889 37.4221C17.4222 37.3332 17.1556 37.2443 16.9778 37.3332C16.9778 37.4221 16.8 37.4221 17.2444 37.511Z" fill="#8F34C5"/>
<defs>
<radialGradient id="paint0_radial_33_105" cx="0" cy="0" r="1" gradientUnits="userSpaceOnUse" gradientTransform="translate(26.1589 13.6643) scale(14.0108)">
<stop stop-color="white"/>
<stop offset="0.0608389" stop-color="#E9D7F4"/>
<stop offset="0.1377" stop-color="#D1ACE7"/>
<stop offset="0.2207" stop-color="#BC85DD"/>
<stop offset="0.3086" stop-color="#AA65D3"/>
<stop offset="0.403" stop-color="#9C4BCC"/>
<stop offset="0.5063" stop-color="#9136C6"/>
<stop offset="0.623" stop-color="#8928C2"/>
<stop offset="0.7646" stop-color="#8420C0"/>
<stop offset="1" stop-color="#831DBF"/>
</radialGradient>
</defs>
</svg>
