<svg width="7" height="9" viewBox="0 0 7 9" fill="none" xmlns="http://www.w3.org/2000/svg">
<path d="M6.00012 4.14882L1.99501 0.143779C1.90238 0.0510727 1.77872 0 1.64687 0C1.51501 0 1.39136 0.0510727 1.29872 0.143779L1.00377 0.438655C0.811848 0.630799 0.811848 0.943089 1.00377 1.13494L4.36697 4.49813L1.00004 7.86505C0.907408 7.95776 0.856262 8.08135 0.856262 8.21312C0.856262 8.34505 0.907408 8.46863 1.00004 8.56141L1.29499 8.85622C1.3877 8.94892 1.51128 9 1.64313 9C1.77499 9 1.89864 8.94892 1.99128 8.85622L6.00012 4.84752C6.09298 4.75452 6.14398 4.63035 6.14368 4.49835C6.14398 4.36584 6.09298 4.24174 6.00012 4.14882Z" fill="#FBBE07"/>
</svg>
