<svg width="53" height="53" viewBox="0 0 53 53" fill="none" xmlns="http://www.w3.org/2000/svg">
<path d="M52.2188 6.79688V1.45312C52.2188 1.21692 52.1249 0.990383 51.9579 0.823358C51.7909 0.656334 51.5644 0.5625 51.3281 0.5625H6.7969C6.56069 0.5625 6.33416 0.656334 6.16713 0.823358C6.00011 0.990383 5.90627 1.21692 5.90627 1.45312V5.90625H5.06018C4.33991 5.90773 3.64225 6.15794 3.0852 6.61455C2.52815 7.07116 2.14591 7.70616 2.00311 8.41214L0.757904 14.6378L2.50464 14.9872L3.74974 8.76148C3.81097 8.45889 3.97484 8.18673 4.21362 7.99103C4.45241 7.79533 4.75145 7.68811 5.06018 7.6875H5.83948V25.2773C5.84009 25.8086 6.05142 26.318 6.42709 26.6936C6.80276 27.0693 7.3121 27.2806 7.84338 27.2812H9.46877C9.60232 27.2813 9.73416 27.2513 9.85455 27.1935C9.97493 27.1357 10.0808 27.0515 10.1642 26.9473L16.7624 18.6995L17.1345 18.9654C18.3451 19.8284 19.1768 21.1245 19.4571 22.5846C19.7373 24.0447 19.4445 25.5566 18.6394 26.8065C18.6361 26.8117 18.6329 26.8169 18.6297 26.822L13.1635 35.7215C13.0772 35.8616 13.0315 36.0229 13.0313 36.1875V52.2188H14.8125V43.5686C15.5894 44.0978 16.4575 44.4786 17.3731 44.6915C19.0668 45.082 20.8432 44.8788 22.4051 44.1161L22.8051 43.9203C23.0172 43.8166 23.1795 43.6328 23.2561 43.4094C23.3327 43.186 23.3175 42.9413 23.2138 42.7291L22.4614 41.191C24.0699 41.5019 25.7359 41.278 27.2053 40.5537L27.6055 40.358C27.8176 40.2542 27.9798 40.0704 28.0565 39.847C28.1331 39.6236 28.1179 39.3789 28.0141 39.1668L26.8852 36.8586L42.4851 41.2499C42.7384 41.3213 43.0033 41.342 43.2646 41.311C43.5259 41.2799 43.7785 41.1977 44.008 41.069C44.2375 40.9403 44.4394 40.7676 44.6022 40.5609C44.765 40.3541 44.8854 40.1173 44.9566 39.864L48.4987 27.2812H51.3281C51.5644 27.2812 51.7909 27.1874 51.9579 27.0204C52.1249 26.8534 52.2188 26.6268 52.2188 26.3906V8.57812H50.4375V25.5H21.1198C21.2647 24.9172 21.3394 24.3192 21.3425 23.7188H44.3558C44.4983 23.7188 44.6387 23.6846 44.7652 23.619C44.8918 23.5535 45.0008 23.4586 45.083 23.3423C45.1653 23.2259 45.2184 23.0915 45.238 22.9504C45.2575 22.8092 45.2429 22.6654 45.1954 22.5311C45.0833 22.214 45.0632 21.8717 45.1375 21.5437C45.2118 21.2157 45.3775 20.9154 45.6153 20.6776C45.8531 20.4398 46.1534 20.2742 46.4814 20.2C46.8095 20.1257 47.1518 20.1458 47.4688 20.258C47.6032 20.3055 47.7469 20.32 47.8881 20.3005C48.0292 20.2809 48.1636 20.2277 48.2799 20.1454C48.3962 20.0632 48.4911 19.9542 48.5566 19.8277C48.6221 19.7011 48.6563 19.5607 48.6563 19.4183V7.53487C48.6563 7.39239 48.6221 7.25199 48.5566 7.12545C48.4911 6.99892 48.3962 6.88994 48.2799 6.80768C48.1636 6.72541 48.0292 6.67225 47.8881 6.65267C47.7469 6.63308 47.6032 6.64764 47.4688 6.69512C47.2002 6.79013 46.9126 6.81928 46.6303 6.78013C46.348 6.74098 46.0793 6.63468 45.8466 6.47013C45.6139 6.30559 45.4241 6.08763 45.2931 5.83453C45.1621 5.58144 45.0937 5.30061 45.0938 5.01562C45.0938 4.77942 44.9999 4.55288 44.8329 4.38586C44.6659 4.21883 44.4394 4.125 44.2031 4.125H13.0313C12.7951 4.125 12.5685 4.21883 12.4015 4.38586C12.2345 4.55288 12.1406 4.77942 12.1406 5.01562C12.1401 5.48787 11.9522 5.94061 11.6183 6.27454C11.2844 6.60847 10.8316 6.79632 10.3594 6.79688C10.1232 6.79688 9.89666 6.89071 9.72963 7.05773C9.56261 7.22476 9.46877 7.45129 9.46877 7.6875V19.2656C9.46877 19.5018 9.56261 19.7284 9.72963 19.8954C9.89666 20.0624 10.1232 20.1562 10.3594 20.1562C10.7825 20.1567 11.1917 20.3075 11.5139 20.5817C11.8361 20.856 12.0503 21.2358 12.1184 21.6534L9.04072 25.5H7.84338C7.78433 25.5 7.7277 25.4765 7.68594 25.4348C7.64418 25.393 7.62073 25.3364 7.62073 25.2773V6.79688H7.68752V2.34375H50.4375V6.79688H52.2188ZM14.8125 41.2307V36.4392L15.8999 34.6691L17.0785 37.079C17.7261 38.4117 18.7531 39.5233 20.0305 40.2741L21.2146 42.6952C20.1238 43.1222 18.9297 43.2109 17.7878 42.9497C16.6459 42.6885 15.6091 42.0895 14.8125 41.2307ZM26.0151 39.1337C24.6597 39.6716 23.1512 39.6782 21.7911 39.1522C20.431 38.6262 19.3195 37.6063 18.6786 36.2964L17.6869 34.2688L24.5853 36.2107L26.0151 39.1337ZM43.2424 39.3807C43.2344 39.4089 43.221 39.4352 43.2029 39.4581C43.1848 39.4811 43.1624 39.5003 43.1369 39.5146C43.1114 39.5289 43.0833 39.538 43.0542 39.5414C43.0252 39.5448 42.9958 39.5425 42.9676 39.5346L17.3421 32.3212L18.5588 30.3403L38.6606 36.4715C38.7784 36.5074 38.9024 36.5185 39.0247 36.5041C39.147 36.4897 39.265 36.4501 39.3712 36.3877C39.4775 36.3254 39.5696 36.2417 39.6418 36.1419C39.7141 36.0421 39.7648 35.9285 39.7909 35.8081C39.8407 35.5795 39.9351 35.3629 40.0687 35.1708C40.2022 34.9786 40.3724 34.8147 40.5693 34.6883C40.7662 34.562 40.9861 34.4756 41.2164 34.4343C41.4468 34.3929 41.683 34.3974 41.9116 34.4473C42.1354 34.4961 42.3694 34.4567 42.5649 34.3372C42.7604 34.2178 42.9022 34.0275 42.9609 33.8061L44.6987 27.2812H46.6482L43.2424 39.3807ZM42.8553 27.2812L41.4319 32.6264C40.8016 32.6469 40.1879 32.8331 39.6525 33.1663C39.1171 33.4995 38.679 33.9679 38.3824 34.5244L19.5223 28.7718L20.1428 27.7616C20.244 27.6038 20.3387 27.4436 20.4268 27.2812H42.8553ZM11.25 18.4878V8.46535C11.8657 8.30504 12.4274 7.98336 12.8773 7.53351C13.3272 7.08365 13.6489 6.52192 13.8092 5.90625H43.4252C43.6236 6.67049 44.07 7.34734 44.6942 7.83082C45.3185 8.3143 46.0854 8.57712 46.875 8.57812V18.375C45.9305 18.3761 45.025 18.7517 44.3571 19.4196C43.6893 20.0875 43.3136 20.993 43.3125 21.9375H21.1404C20.7206 20.1515 19.6646 18.5796 18.1698 17.5157L17.1114 16.7596C16.926 16.6271 16.6969 16.5707 16.4712 16.602C16.2454 16.6333 16.0403 16.75 15.898 16.928L13.3885 20.0647C12.9047 19.2839 12.139 18.7192 11.25 18.4878Z" fill="#FBBE07"/>
</svg>
