<svg width="15" height="15" viewBox="0 0 15 15" fill="none" xmlns="http://www.w3.org/2000/svg">
<path d="M14.9608 5.75336C14.862 5.44963 14.5926 5.23459 14.2751 5.20587L9.94508 4.81276L8.23381 0.806344C8.10747 0.511997 7.81999 0.322021 7.5 0.322021C7.18002 0.322021 6.89243 0.511997 6.76688 0.806344L5.05562 4.81276L0.724875 5.20587C0.40741 5.23517 0.138584 5.4502 0.0392477 5.75336C-0.0595165 6.0571 0.0316945 6.39024 0.271796 6.60081L3.54498 9.47092L2.57988 13.7216C2.50927 14.0341 2.63058 14.3573 2.8899 14.5447C3.0293 14.646 3.19306 14.6966 3.3574 14.6966C3.49863 14.6966 3.63996 14.6591 3.76619 14.5835L7.5 12.351L11.2331 14.5835C11.507 14.7472 11.8513 14.7322 12.1101 14.5447C12.3694 14.3573 12.4907 14.0341 12.4201 13.7216L11.455 9.47092L14.7282 6.60081C14.9682 6.39024 15.0595 6.05778 14.9608 5.75336Z" fill="#FBBE07"/>
</svg>
